<mxfile host="app.diagrams.net" agent="Mozilla/5.0 (Macintosh; Intel Mac OS X 10_15_7) AppleWebKit/537.36 (KHTML, like Gecko) Chrome/128.0.0.0 Safari/537.36" version="24.7.14">
  <diagram name="Page-1" id="hZyFnnQ-NEO26R5vmmBj">
    <mxGraphModel dx="1404" dy="1012" grid="1" gridSize="10" guides="1" tooltips="1" connect="1" arrows="1" fold="1" page="0" pageScale="1" pageWidth="850" pageHeight="1100" math="0" shadow="0">
      <root>
        <mxCell id="0" />
        <mxCell id="1" parent="0" />
        <mxCell id="ZVUKp8MK0bkCZlVXY3z7-9" value="Commanded Motor Torque Signals" style="text;html=1;align=center;verticalAlign=middle;whiteSpace=wrap;rounded=0;" parent="1" vertex="1">
          <mxGeometry x="440" y="-60" width="80" height="40" as="geometry" />
        </mxCell>
        <mxCell id="jxocmDw_oHp8jbZbiG_L-11" value="Torque Vectoring High Level Algorithm" style="text;html=1;align=left;verticalAlign=middle;whiteSpace=wrap;rounded=0;fontStyle=1;fontSize=16;" vertex="1" parent="1">
          <mxGeometry x="-280" y="-160" width="360" height="40" as="geometry" />
        </mxCell>
        <mxCell id="jxocmDw_oHp8jbZbiG_L-18" style="edgeStyle=orthogonalEdgeStyle;rounded=0;orthogonalLoop=1;jettySize=auto;html=1;exitX=1;exitY=0.5;exitDx=0;exitDy=0;entryX=0;entryY=0.5;entryDx=0;entryDy=0;" edge="1" parent="1" source="jxocmDw_oHp8jbZbiG_L-12" target="jxocmDw_oHp8jbZbiG_L-14">
          <mxGeometry relative="1" as="geometry" />
        </mxCell>
        <mxCell id="jxocmDw_oHp8jbZbiG_L-12" value="Reference Generation" style="rounded=0;whiteSpace=wrap;html=1;" vertex="1" parent="1">
          <mxGeometry x="-40" y="-80" width="80" height="80" as="geometry" />
        </mxCell>
        <mxCell id="jxocmDw_oHp8jbZbiG_L-17" style="edgeStyle=orthogonalEdgeStyle;rounded=0;orthogonalLoop=1;jettySize=auto;html=1;exitX=1;exitY=0.5;exitDx=0;exitDy=0;entryX=0;entryY=0.5;entryDx=0;entryDy=0;" edge="1" parent="1" source="jxocmDw_oHp8jbZbiG_L-14" target="jxocmDw_oHp8jbZbiG_L-15">
          <mxGeometry relative="1" as="geometry" />
        </mxCell>
        <mxCell id="jxocmDw_oHp8jbZbiG_L-14" value="Yaw Rate&lt;div&gt;Controller&lt;/div&gt;" style="rounded=0;whiteSpace=wrap;html=1;" vertex="1" parent="1">
          <mxGeometry x="80" y="-80" width="80" height="80" as="geometry" />
        </mxCell>
        <mxCell id="jxocmDw_oHp8jbZbiG_L-16" style="edgeStyle=orthogonalEdgeStyle;rounded=0;orthogonalLoop=1;jettySize=auto;html=1;exitX=1;exitY=0.5;exitDx=0;exitDy=0;entryX=0;entryY=0.5;entryDx=0;entryDy=0;" edge="1" parent="1" source="jxocmDw_oHp8jbZbiG_L-21" target="ZVUKp8MK0bkCZlVXY3z7-9">
          <mxGeometry relative="1" as="geometry" />
        </mxCell>
        <mxCell id="jxocmDw_oHp8jbZbiG_L-15" value="Torque&lt;div&gt;Distribution&lt;/div&gt;" style="rounded=0;whiteSpace=wrap;html=1;" vertex="1" parent="1">
          <mxGeometry x="200" y="-80" width="80" height="80" as="geometry" />
        </mxCell>
        <mxCell id="jxocmDw_oHp8jbZbiG_L-24" value="" style="edgeStyle=orthogonalEdgeStyle;rounded=0;orthogonalLoop=1;jettySize=auto;html=1;exitX=1;exitY=0.5;exitDx=0;exitDy=0;entryX=0;entryY=0.5;entryDx=0;entryDy=0;" edge="1" parent="1" source="jxocmDw_oHp8jbZbiG_L-15" target="jxocmDw_oHp8jbZbiG_L-21">
          <mxGeometry relative="1" as="geometry">
            <mxPoint x="280" y="-40" as="sourcePoint" />
            <mxPoint x="570" y="-40" as="targetPoint" />
          </mxGeometry>
        </mxCell>
        <mxCell id="jxocmDw_oHp8jbZbiG_L-21" value="Output Validation" style="rounded=0;whiteSpace=wrap;html=1;" vertex="1" parent="1">
          <mxGeometry x="320" y="-80" width="80" height="80" as="geometry" />
        </mxCell>
        <mxCell id="jxocmDw_oHp8jbZbiG_L-25" value="Reference Speed" style="text;html=1;align=right;verticalAlign=middle;whiteSpace=wrap;rounded=0;" vertex="1" parent="1">
          <mxGeometry x="-280" y="-20" width="100" height="30" as="geometry" />
        </mxCell>
        <mxCell id="jxocmDw_oHp8jbZbiG_L-26" value="Steering Angle" style="text;html=1;align=right;verticalAlign=middle;whiteSpace=wrap;rounded=0;" vertex="1" parent="1">
          <mxGeometry x="-280" y="30" width="100" height="30" as="geometry" />
        </mxCell>
        <mxCell id="jxocmDw_oHp8jbZbiG_L-27" value="Accelerator Pedal Position" style="text;html=1;align=right;verticalAlign=middle;whiteSpace=wrap;rounded=0;" vertex="1" parent="1">
          <mxGeometry x="-280" y="80" width="100" height="30" as="geometry" />
        </mxCell>
        <mxCell id="jxocmDw_oHp8jbZbiG_L-28" value="Side Slip Angle" style="text;html=1;align=right;verticalAlign=middle;whiteSpace=wrap;rounded=0;" vertex="1" parent="1">
          <mxGeometry x="40" y="140" width="100" height="40" as="geometry" />
        </mxCell>
        <mxCell id="jxocmDw_oHp8jbZbiG_L-29" value="Tire Normal Loads" style="text;html=1;align=right;verticalAlign=middle;whiteSpace=wrap;rounded=0;" vertex="1" parent="1">
          <mxGeometry x="10" y="180" width="130" height="40" as="geometry" />
        </mxCell>
        <mxCell id="jxocmDw_oHp8jbZbiG_L-30" value="Wheel Speeds" style="text;html=1;align=right;verticalAlign=middle;whiteSpace=wrap;rounded=0;" vertex="1" parent="1">
          <mxGeometry x="30" y="220" width="110" height="40" as="geometry" />
        </mxCell>
        <mxCell id="jxocmDw_oHp8jbZbiG_L-31" value="Battery Power" style="text;html=1;align=right;verticalAlign=middle;whiteSpace=wrap;rounded=0;" vertex="1" parent="1">
          <mxGeometry x="30" y="260" width="110" height="40" as="geometry" />
        </mxCell>
        <mxCell id="jxocmDw_oHp8jbZbiG_L-32" value="Battery SoC" style="text;html=1;align=right;verticalAlign=middle;whiteSpace=wrap;rounded=0;" vertex="1" parent="1">
          <mxGeometry x="40" y="300" width="100" height="40" as="geometry" />
        </mxCell>
        <mxCell id="jxocmDw_oHp8jbZbiG_L-33" value="Brake Pressure" style="text;html=1;align=right;verticalAlign=middle;whiteSpace=wrap;rounded=0;" vertex="1" parent="1">
          <mxGeometry x="-280" y="130" width="100" height="30" as="geometry" />
        </mxCell>
        <mxCell id="jxocmDw_oHp8jbZbiG_L-35" style="edgeStyle=orthogonalEdgeStyle;rounded=0;orthogonalLoop=1;jettySize=auto;html=1;exitX=0;exitY=0.5;exitDx=0;exitDy=0;exitPerimeter=0;entryX=0;entryY=0.5;entryDx=0;entryDy=0;" edge="1" parent="1" source="jxocmDw_oHp8jbZbiG_L-34" target="jxocmDw_oHp8jbZbiG_L-12">
          <mxGeometry relative="1" as="geometry">
            <mxPoint x="-120" y="80.00000000000023" as="targetPoint" />
          </mxGeometry>
        </mxCell>
        <mxCell id="jxocmDw_oHp8jbZbiG_L-34" value="" style="strokeWidth=2;html=1;shape=mxgraph.flowchart.annotation_2;align=left;labelPosition=right;pointerEvents=1;rotation=-180;" vertex="1" parent="1">
          <mxGeometry x="-170" y="-20" width="30" height="180" as="geometry" />
        </mxCell>
        <mxCell id="jxocmDw_oHp8jbZbiG_L-46" style="edgeStyle=orthogonalEdgeStyle;rounded=0;orthogonalLoop=1;jettySize=auto;html=1;exitX=0;exitY=0.5;exitDx=0;exitDy=0;exitPerimeter=0;entryX=0.5;entryY=1;entryDx=0;entryDy=0;" edge="1" parent="1" source="jxocmDw_oHp8jbZbiG_L-42" target="jxocmDw_oHp8jbZbiG_L-15">
          <mxGeometry relative="1" as="geometry" />
        </mxCell>
        <mxCell id="jxocmDw_oHp8jbZbiG_L-42" value="" style="strokeWidth=2;html=1;shape=mxgraph.flowchart.annotation_2;align=left;labelPosition=right;pointerEvents=1;rotation=-180;" vertex="1" parent="1">
          <mxGeometry x="150" y="150" width="30" height="190" as="geometry" />
        </mxCell>
        <mxCell id="jxocmDw_oHp8jbZbiG_L-45" style="edgeStyle=orthogonalEdgeStyle;rounded=0;orthogonalLoop=1;jettySize=auto;html=1;exitX=1;exitY=0.5;exitDx=0;exitDy=0;entryX=0.5;entryY=1;entryDx=0;entryDy=0;" edge="1" parent="1" source="jxocmDw_oHp8jbZbiG_L-44" target="jxocmDw_oHp8jbZbiG_L-14">
          <mxGeometry relative="1" as="geometry" />
        </mxCell>
        <mxCell id="jxocmDw_oHp8jbZbiG_L-44" value="Yaw Rate" style="text;html=1;align=right;verticalAlign=middle;whiteSpace=wrap;rounded=0;" vertex="1" parent="1">
          <mxGeometry x="-50" y="60" width="130" height="40" as="geometry" />
        </mxCell>
      </root>
    </mxGraphModel>
  </diagram>
</mxfile>
